<?xml version="1.0" encoding="utf-8"?>
<!-- Generator: Adobe Illustrator 17.0.0, SVG Export Plug-In . SVG Version: 6.00 Build 0)  -->
<!DOCTYPE svg PUBLIC "-//W3C//DTD SVG 1.1//EN" "http://www.w3.org/Graphics/SVG/1.1/DTD/svg11.dtd">
<svg version="1.1" id="Layer_1" xmlns="http://www.w3.org/2000/svg" xmlns:xlink="http://www.w3.org/1999/xlink" x="0px" y="0px"
	 width="760px" height="760px" viewBox="0 0 760 760" enable-background="new 0 0 760 760" xml:space="preserve">
<g>
	<g>
		<linearGradient id="SVGID_1_" gradientUnits="userSpaceOnUse" x1="48.9828" y1="557.9552" x2="687.2501" y2="557.9552">
			<stop  offset="0" style="stop-color:#1D4B9E"/>
			<stop  offset="1" style="stop-color:#36DCF2"/>
		</linearGradient>
		<path opacity="0.5" fill="url(#SVGID_1_)" d="M54.621,534.953l350.729,202.482c11.729,6.771,26.179,6.771,37.908,0L687.25,596.586
			l-386.597-223.19L54.621,515.423C47.104,519.763,47.104,530.613,54.621,534.953z"/>
		<linearGradient id="SVGID_2_" gradientUnits="userSpaceOnUse" x1="48.9829" y1="515.7718" x2="687.2499" y2="515.7718">
			<stop  offset="0" style="stop-color:#0F3F84"/>
			<stop  offset="0.6649" style="stop-color:#36DCF2"/>
			<stop  offset="1" style="stop-color:#0F3F84"/>
		</linearGradient>
		<path fill="url(#SVGID_2_)" d="M654.38,539.675L300.653,335.461L63.414,472.411l0.651-3.305l-15.082-2.159v11.558l0.016-0.003
			c-0.086,3.882,1.779,7.802,5.622,10.02l350.729,202.482c11.729,6.771,26.18,6.771,37.908,0L687.25,550.155v-11.811L654.38,539.675
			z"/>
		<linearGradient id="SVGID_3_" gradientUnits="userSpaceOnUse" x1="48.9828" y1="499.7127" x2="687.2501" y2="499.7127">
			<stop  offset="0" style="stop-color:#1D4B9E"/>
			<stop  offset="1" style="stop-color:#36DCF2"/>
		</linearGradient>
		<path fill="url(#SVGID_3_)" d="M54.621,476.711l350.729,202.482c11.729,6.771,26.179,6.771,37.908,0L687.25,538.344
			l-386.597-223.19L54.621,457.181C47.104,461.521,47.104,472.371,54.621,476.711z"/>
	</g>
	<g>
		<linearGradient id="SVGID_4_" gradientUnits="userSpaceOnUse" x1="326.7743" y1="16.0861" x2="662.7055" y2="553.6884">
			<stop  offset="0" style="stop-color:#1D4B9E"/>
			<stop  offset="0.2378" style="stop-color:#36DCF2"/>
			<stop  offset="0.4757" style="stop-color:#1D4B9E"/>
			<stop  offset="0.6243" style="stop-color:#36DCF2"/>
			<stop  offset="1" style="stop-color:#1D4B9E"/>
		</linearGradient>
		<path fill="url(#SVGID_4_)" d="M670.543,232.826L317.998,29.285c-4.036-2.33-8.588-1.897-12.02,0.306l-0.017-0.011l-9.942,5.725
			l3.113,3.865l1.528,0.238v275.75l363.756,210.003l-0.795,1.517l12.835,17.897l10.802-6.227l0.171-276.253
			C687.436,250.021,680.998,238.863,670.543,232.826z"/>
		<linearGradient id="SVGID_5_" gradientUnits="userSpaceOnUse" x1="483.2424" y1="544.5742" x2="483.2424" y2="33.9459">
			<stop  offset="0" style="stop-color:#1D4B9E"/>
			<stop  offset="1" style="stop-color:#36DCF2"/>
		</linearGradient>
		<path fill="url(#SVGID_5_)" d="M289.858,321.384V45.522c0-8.898,9.633-14.46,17.339-10.011l352.545,203.542
			c10.456,6.036,16.893,17.195,16.885,29.268l-0.172,276.253L289.858,321.384z"/>
	</g>
	<linearGradient id="SVGID_6_" gradientUnits="userSpaceOnUse" x1="304.0216" y1="285.9297" x2="663.9561" y2="285.9297">
		<stop  offset="0" style="stop-color:#1D4B9E"/>
		<stop  offset="1" style="stop-color:#033660"/>
	</linearGradient>
	<polygon fill="url(#SVGID_6_)" points="304.022,315.154 663.956,523.017 663.956,256.92 304.022,48.842 	"/>
	<g>
		<g>
			<polygon fill="#163E6D" points="585.269,528.294 606.589,540.701 618.589,533.831 597.269,521.424 			"/>
			<polygon fill="#163E6D" points="551.32,543.097 576.652,557.838 599.421,544.804 574.089,530.063 			"/>
			<polygon fill="#163E6D" points="519.634,524.657 544.965,539.399 567.734,526.365 542.403,511.623 			"/>
			<polygon fill="#163E6D" points="487.947,506.218 513.279,520.959 536.048,507.925 510.716,493.184 			"/>
			<polygon fill="#163E6D" points="456.261,487.779 481.593,502.52 504.361,489.486 479.03,474.744 			"/>
			<polygon fill="#163E6D" points="424.574,469.339 449.906,484.08 472.675,471.046 447.343,456.305 			"/>
			<polygon fill="#163E6D" points="392.888,450.9 418.22,465.641 440.988,452.607 415.657,437.866 			"/>
			<polygon fill="#163E6D" points="361.201,432.461 386.533,447.202 409.302,434.168 383.97,419.426 			"/>
			<polygon fill="#163E6D" points="329.515,414.021 354.847,428.762 377.615,415.728 352.284,400.987 			"/>
			<polygon fill="#163E6D" points="441.193,548.128 466.524,562.869 489.293,549.835 463.962,535.094 			"/>
			<polygon fill="#163E6D" points="409.506,529.688 434.838,544.43 457.607,531.395 432.275,516.654 			"/>
			<polygon fill="#163E6D" points="377.82,511.249 403.152,525.99 425.92,512.956 400.589,498.215 			"/>
			<polygon fill="#163E6D" points="346.134,492.81 371.465,507.551 394.234,494.517 368.902,479.775 			"/>
			<polygon fill="#163E6D" points="314.447,474.37 339.779,489.112 362.547,476.077 337.216,461.336 			"/>
			<polygon fill="#163E6D" points="270.078,448.55 308.092,470.672 330.861,457.638 292.847,435.516 			"/>
			<polygon fill="#163E6D" points="297.996,395.679 322.992,410.225 345.761,397.191 320.765,382.645 			"/>
			<polygon fill="#163E6D" points="265.677,376.871 290.673,391.418 313.442,378.383 288.446,363.837 			"/>
			<polygon fill="#163E6D" points="521.383,560.235 546.715,574.976 569.484,561.942 544.152,547.2 			"/>
			<polygon fill="#163E6D" points="489.697,541.795 515.029,556.536 537.797,543.502 512.466,528.761 			"/>
			<g>
				<polygon fill="#163E6D" points="207.7,447.449 233.031,462.19 255.8,449.156 230.468,434.415 				"/>
				<polygon fill="#163E6D" points="176.013,429.01 201.345,443.751 224.114,430.717 198.782,415.976 				"/>
			</g>
			<polygon fill="#163E6D" points="240.141,465.688 422.882,572.031 445.651,558.997 262.91,452.654 			"/>
			<polygon fill="#163E6D" points="458.01,523.356 483.342,538.097 506.111,525.063 480.779,510.322 			"/>
			<polygon fill="#163E6D" points="426.324,504.916 451.656,519.658 474.424,506.623 449.093,491.882 			"/>
			<polygon fill="#163E6D" points="394.638,486.477 419.969,501.218 442.738,488.184 417.406,473.443 			"/>
			<polygon fill="#163E6D" points="362.951,468.037 388.283,482.779 411.051,469.745 385.72,455.003 			"/>
			<polygon fill="#163E6D" points="331.265,449.598 356.596,464.339 379.365,451.305 354.034,436.564 			"/>
			<polygon fill="#163E6D" points="299.578,431.159 324.91,445.9 347.678,432.866 322.347,418.124 			"/>
			<polygon fill="#163E6D" points="236.056,394.193 293.056,427.363 315.825,414.329 258.824,381.158 			"/>
			<polygon fill="#163E6D" points="206.119,411.33 266.177,446.28 288.945,433.246 228.888,398.296 			"/>
			<g>
				<polygon fill="#163E6D" points="429.522,574.349 489.58,609.299 500.964,602.781 440.906,567.832 				"/>
				<polygon fill="#163E6D" points="449.381,585.906 469.721,597.742 492.49,584.708 472.15,572.871 				"/>
			</g>
			<polygon fill="#163E6D" points="472.426,566.303 516.778,592.114 539.547,579.079 495.195,553.269 			"/>
			<polygon fill="#163E6D" points="556.335,511.456 577.655,523.863 589.655,516.993 568.336,504.587 			"/>
			<polygon fill="#163E6D" points="527.401,494.619 548.721,507.025 560.721,500.155 539.401,487.749 			"/>
			<polygon fill="#163E6D" points="498.467,477.781 519.787,490.188 531.787,483.318 510.468,470.911 			"/>
			<polygon fill="#163E6D" points="469.533,460.943 490.853,473.35 502.853,466.48 481.534,454.073 			"/>
			<polygon fill="#163E6D" points="440.599,444.106 461.919,456.512 473.92,449.642 452.6,437.236 			"/>
			<polygon fill="#163E6D" points="411.665,427.268 432.985,439.675 444.986,432.805 423.666,420.398 			"/>
			<polygon fill="#163E6D" points="382.731,410.43 404.051,422.837 416.051,415.967 394.732,403.56 			"/>
			<polygon fill="#163E6D" points="353.797,393.593 375.117,405.999 387.118,399.129 365.798,386.723 			"/>
			<polygon fill="#163E6D" points="324.863,376.755 346.183,389.162 358.184,382.292 336.864,369.885 			"/>
			<polygon fill="#163E6D" points="295.929,359.917 317.249,372.324 329.25,365.454 307.93,353.047 			"/>
		</g>
		<path fill="#163E6D" d="M385.825,560.788l-124.467-71.861c-3.687-2.129-8.23-2.129-11.918,0l-54.293,31.065
			c-2.84,1.64-2.84,5.739,0,7.379l124.857,72.086c3.528,2.037,7.875,2.037,11.403,0l54.417-31.137
			C388.724,566.646,388.724,562.462,385.825,560.788z"/>
	</g>
	
		<ellipse transform="matrix(-0.86 0.5103 -0.5103 -0.86 1028.2513 38.1117)" fill="#235091" cx="508.897" cy="160.113" rx="2.52" ry="3.943"/>
	<g>
		<linearGradient id="SVGID_7_" gradientUnits="userSpaceOnUse" x1="264.6797" y1="243.0248" x2="673.2508" y2="243.0248">
			<stop  offset="0" style="stop-color:#25F26E"/>
			<stop  offset="1" style="stop-color:#36DCF2"/>
		</linearGradient>
		<polygon fill="url(#SVGID_7_)" points="673.251,403.937 673.251,318.002 264.68,82.113 264.68,167.915 		"/>
		<linearGradient id="SVGID_8_" gradientUnits="userSpaceOnUse" x1="264.6797" y1="198.8098" x2="677.6848" y2="198.8098">
			<stop  offset="0" style="stop-color:#5FFF94"/>
			<stop  offset="1" style="stop-color:#69FFFF"/>
		</linearGradient>
		<polygon fill="url(#SVGID_8_)" points="264.68,82.113 268.999,79.618 677.685,315.573 673.251,318.002 		"/>
		<linearGradient id="SVGID_9_" gradientUnits="userSpaceOnUse" x1="475.4908" y1="203.825" x2="487.8221" y2="182.4665">
			<stop  offset="0" style="stop-color:#FFFFFF"/>
			<stop  offset="0.1223" style="stop-color:#FFFFFF;stop-opacity:0.8777"/>
			<stop  offset="1" style="stop-color:#FFFFFF;stop-opacity:0"/>
		</linearGradient>
		<polygon fill="url(#SVGID_9_)" points="264.68,82.113 289.947,68.223 698.633,304.178 673.251,318.002 		"/>
		<linearGradient id="SVGID_10_" gradientUnits="userSpaceOnUse" x1="675.4678" y1="403.9365" x2="675.4678" y2="315.573">
			<stop  offset="0" style="stop-color:#2ADB65"/>
			<stop  offset="1" style="stop-color:#11BECC"/>
		</linearGradient>
		<polygon fill="url(#SVGID_10_)" points="673.251,318.002 677.685,315.573 677.685,401.375 673.251,403.937 		"/>
		<linearGradient id="SVGID_11_" gradientUnits="userSpaceOnUse" x1="673.2508" y1="353.2013" x2="701.1776" y2="353.2013">
			<stop  offset="0" style="stop-color:#FFFFFF"/>
			<stop  offset="0.1223" style="stop-color:#FFFFFF;stop-opacity:0.8777"/>
			<stop  offset="1" style="stop-color:#FFFFFF;stop-opacity:0"/>
		</linearGradient>
		<polygon fill="url(#SVGID_11_)" points="673.251,318.002 701.178,302.466 701.178,388.268 673.251,403.937 		"/>
		<g>
			<path fill="#005448" d="M315.572,164.76c0,5.028-3.064,7.377-6.845,5.247s-6.845-7.933-6.845-12.961s3.065-7.377,6.845-5.247
				S315.572,159.732,315.572,164.76z"/>
			<path fill="#005448" d="M337.97,177.381c0,5.028-3.064,7.377-6.845,5.247c-3.78-2.13-6.844-7.933-6.844-12.961
				c0-5.028,3.064-7.377,6.844-5.247C334.906,166.551,337.97,172.353,337.97,177.381z"/>
			<path fill="#005448" d="M360.368,190.002c0,5.028-3.064,7.377-6.844,5.247s-6.845-7.933-6.845-12.961
				c0-5.028,3.064-7.377,6.845-5.247C357.303,179.171,360.368,184.974,360.368,190.002z"/>
			<path fill="#005448" d="M382.765,202.623c0,5.028-3.064,7.377-6.845,5.247c-3.78-2.13-6.845-7.933-6.845-12.961
				s3.064-7.377,6.845-5.247C379.701,191.793,382.765,197.595,382.765,202.623z"/>
			<path fill="#005448" d="M405.163,215.244c0,5.028-3.064,7.377-6.845,5.247c-3.78-2.13-6.844-7.933-6.844-12.961
				c0-5.028,3.064-7.377,6.844-5.247C402.099,204.414,405.163,210.216,405.163,215.244z"/>
			<path fill="#005448" d="M427.561,227.865c0,5.028-3.064,7.377-6.844,5.247s-6.845-7.933-6.845-12.961s3.065-7.377,6.845-5.247
				S427.561,222.837,427.561,227.865z"/>
			<path fill="#005448" d="M449.959,240.486c0,5.028-3.064,7.377-6.845,5.247c-3.78-2.13-6.845-7.933-6.845-12.961
				c0-5.028,3.064-7.377,6.845-5.247C446.894,229.656,449.959,235.458,449.959,240.486z"/>
			<path fill="#005448" d="M472.356,253.107c0,5.028-3.064,7.377-6.845,5.247c-3.78-2.13-6.844-7.933-6.844-12.961
				s3.064-7.377,6.844-5.247C469.292,242.277,472.356,248.08,472.356,253.107z"/>
			<path fill="#005448" d="M494.754,265.729c0,5.028-3.064,7.377-6.844,5.247c-3.78-2.13-6.845-7.933-6.845-12.961
				c0-5.028,3.065-7.377,6.845-5.247C491.69,254.898,494.754,260.701,494.754,265.729z"/>
			<path fill="#005448" d="M517.152,278.349c0,5.028-3.064,7.377-6.845,5.247c-3.78-2.13-6.845-7.933-6.845-12.961
				c0-5.028,3.064-7.377,6.845-5.247C514.087,267.519,517.152,273.322,517.152,278.349z"/>
			<path fill="#005448" d="M539.549,290.97c0,5.028-3.064,7.377-6.845,5.247c-3.78-2.13-6.844-7.933-6.844-12.961
				c0-5.028,3.064-7.377,6.844-5.247C536.485,280.14,539.549,285.943,539.549,290.97z"/>
			<path fill="#005448" d="M561.947,303.592c0,5.028-3.064,7.377-6.844,5.247c-3.78-2.13-6.845-7.933-6.845-12.961
				c0-5.028,3.064-7.377,6.845-5.247C558.883,292.761,561.947,298.564,561.947,303.592z"/>
			<path fill="#005448" d="M584.345,316.213c0,5.028-3.065,7.377-6.845,5.247c-3.78-2.13-6.845-7.933-6.845-12.961
				s3.065-7.377,6.845-5.247C581.28,305.382,584.345,311.185,584.345,316.213z"/>
			<path fill="#005448" d="M606.742,328.834c0,5.028-3.065,7.377-6.845,5.247c-3.78-2.13-6.844-7.933-6.844-12.961
				c0-5.028,3.064-7.377,6.844-5.247C603.678,318.003,606.742,323.806,606.742,328.834z"/>
			<path fill="#005448" d="M629.14,341.455c0,5.028-3.064,7.377-6.844,5.247c-3.78-2.13-6.845-7.933-6.845-12.961
				s3.064-7.377,6.845-5.247C626.076,330.624,629.14,336.427,629.14,341.455z"/>
		</g>
	</g>
	<g>
		<linearGradient id="SVGID_12_" gradientUnits="userSpaceOnUse" x1="399.7574" y1="354.7173" x2="515.7882" y2="354.7173">
			<stop  offset="0" style="stop-color:#F96E8D"/>
			<stop  offset="1" style="stop-color:#FFEB33"/>
		</linearGradient>
		<polygon fill="url(#SVGID_12_)" points="515.788,413.126 515.788,363.299 399.757,296.308 399.757,346.098 		"/>
		<polygon fill="#E6E6E6" points="399.757,296.308 409.92,290.421 525.984,357.43 515.788,363.299 		"/>
		<polygon fill="#BFBFBF" points="515.788,363.299 525.984,357.43 525.984,407.22 515.788,413.126 		"/>
		<g>
			<path fill="#FFFFFF" d="M410.183,318.502l4.862,2.774c3.535,2.017,4.431,5.319,4.431,7.597c0,2.303-1.307,3.733-3.396,2.847
				l3.924,10.506l-2.344-1.337l-3.514-9.991l-2.089-1.192v7.986l-1.875-1.07V318.502z M412.058,327.558l2.46,1.403
				c1.483,0.846,2.968,1.233,2.968-1.224c0-2.457-1.485-3.767-2.968-4.613l-2.46-1.403V327.558z"/>
			<path fill="#FFFFFF" d="M423.097,325.871l8.923,5.091v2.303l-7.048-4.022v5.402l6.56,3.743v2.303l-6.56-3.743v5.81l7.4,4.222
				v2.303l-9.274-5.292V325.871z"/>
			<path fill="#FFFFFF" d="M447.786,347.944v8.932c-1.347,0.307-3.554-0.365-5.233-1.323c-4.687-2.674-7.401-8.6-7.401-13.745
				c0-5.375,2.987-7.815,7.206-5.408c2.539,1.449,4.081,3.225,5.155,5.296l-1.328,1.11c-1.132-2.08-2.441-3.312-3.827-4.103
				c-3.164-1.805-5.213,0.276-5.213,4.242c0,4.095,2.323,8.544,5.369,10.283c1.309,0.747,2.558,1.126,3.398,0.991v-5.041
				l-3.065-1.749v-2.303L447.786,347.944z"/>
			<path fill="#FFFFFF" d="M452.188,342.471l1.874,1.07v18.12l-1.874-1.07V342.471z"/>
			<path fill="#FFFFFF" d="M459.004,360.691c0.665,1.711,1.817,2.984,2.93,3.619c1.229,0.701,2.752,0.545,2.752-1.449
				c0-4.172-6.815-5.476-6.815-12.539c0-2.126,1.367-4.288,4.687-2.394c1.502,0.857,2.948,2.091,3.983,4.346l-1.523,0.948
				c-0.469-1.216-1.386-2.379-2.46-2.992c-2.07-1.181-2.695,0.1-2.695,1.228c0,4.581,6.815,5.731,6.815,12.256
				c0,3.507-2.148,4.38-4.803,2.865c-1.778-1.014-3.476-2.777-4.414-5.025L459.004,360.691z"/>
			<path fill="#FFFFFF" d="M473.325,356.834l-4.452-2.54v-2.303l10.778,6.15v2.303l-4.452-2.54v15.818l-1.874-1.07V356.834z"/>
			<path fill="#FFFFFF" d="M482.628,359.839l8.923,5.091v2.303l-7.048-4.022v5.402l6.56,3.743v2.303l-6.56-3.743v5.81l7.4,4.222
				v2.303l-9.274-5.292V359.839z"/>
			<path fill="#FFFFFF" d="M495.542,367.208l4.862,2.774c3.535,2.017,4.431,5.319,4.431,7.597c0,2.303-1.307,3.733-3.396,2.847
				l3.924,10.506l-2.344-1.337l-3.514-9.991l-2.089-1.192v7.986l-1.874-1.07V367.208z M497.416,376.263l2.46,1.403
				c1.483,0.846,2.968,1.233,2.968-1.224c0-2.457-1.485-3.767-2.968-4.614l-2.46-1.403V376.263z"/>
		</g>
	</g>
	
		<radialGradient id="SVGID_13_" cx="382.731" cy="509.107" r="144.7078" gradientTransform="matrix(1 0 0 0.6484 0 150.4444)" gradientUnits="userSpaceOnUse">
		<stop  offset="0" style="stop-color:#25F26E"/>
		<stop  offset="0.0826" style="stop-color:#29EC91;stop-opacity:0.9174"/>
		<stop  offset="0.1735" style="stop-color:#2DE7AF;stop-opacity:0.8265"/>
		<stop  offset="0.2743" style="stop-color:#31E3C7;stop-opacity:0.7257"/>
		<stop  offset="0.3868" style="stop-color:#33E0DA;stop-opacity:0.6132"/>
		<stop  offset="0.5176" style="stop-color:#35DEE8;stop-opacity:0.4824"/>
		<stop  offset="0.6833" style="stop-color:#36DCF0;stop-opacity:0.3167"/>
		<stop  offset="1" style="stop-color:#36DCF2;stop-opacity:0"/>
	</radialGradient>
	<ellipse fill="url(#SVGID_13_)" cx="382.731" cy="480.549" rx="144.711" ry="93.827"/>
	<g>
		<path fill="#D9D9D9" d="M346.143,273.001c0,0-2.614,8.727-2.88,11.943c-0.266,3.216,8.107,24.395,8.107,24.395l3.988-29.577
			l-5.149-7.439L346.143,273.001z"/>
		<linearGradient id="SVGID_14_" gradientUnits="userSpaceOnUse" x1="345.3806" y1="261.248" x2="361.168" y2="261.248">
			<stop  offset="0" style="stop-color:#23BEE2"/>
			<stop  offset="1" style="stop-color:#0771A5"/>
		</linearGradient>
		<path fill="url(#SVGID_14_)" d="M361.168,246.175c-7.565-1.321-12.806,2.503-13.202,10.386l-0.04,0.007l-2.545,16.687
			c0,0,3.642,3.938,7.2,3.24c3.558-0.699,6.861-2.994,7.03-7.522c0.17-4.527,1.557-14.607,1.557-14.607l-1.914,0.318
			C360.422,250.045,361.168,246.175,361.168,246.175z"/>
		
			<linearGradient id="SVGID_15_" gradientUnits="userSpaceOnUse" x1="1171.1708" y1="487.0991" x2="1204.5925" y2="487.0991" gradientTransform="matrix(-1 0 0 1 1583.5612 0)">
			<stop  offset="0" style="stop-color:#083A63"/>
			<stop  offset="1" style="stop-color:#062638"/>
		</linearGradient>
		<path fill="url(#SVGID_15_)" d="M379.408,483.656c0.111,3.183-3.032,13.22,6.033,13.053c7.023,0.839,21.621-10.761,25.784-13.164
			c4.163-2.403-2.872-8.957-20.367-4.688C387.897,480.239,379.408,483.656,379.408,483.656z"/>
		
			<linearGradient id="SVGID_16_" gradientUnits="userSpaceOnUse" x1="1200.782" y1="468.889" x2="1234.204" y2="468.889" gradientTransform="matrix(-1 0 0 1 1583.5612 0)">
			<stop  offset="0" style="stop-color:#083A63"/>
			<stop  offset="1" style="stop-color:#062638"/>
		</linearGradient>
		<path fill="url(#SVGID_16_)" d="M349.797,465.446c0.111,3.183-3.033,13.22,6.033,13.053c7.023,0.838,21.621-10.76,25.784-13.164
			c4.162-2.403-2.872-8.958-20.368-4.688C358.285,462.029,349.797,465.446,349.797,465.446z"/>
		<path fill="#CFCFCF" d="M465.019,252.429l-40.059,40.074l-5.922-6.317c0,0-17.915,3.142-11.697,10.249
			c6.219,7.107,12.338,10.108,19.544,10.775c6.014,0.556,45.601-48.044,45.601-48.044c2.714-1.555,8.424-7.181,9.574-15.916
			c-0.626-2.961-4.613-9.156-9.007-9.846c-3.06-0.074-5.404,7.127-6.194,9.649c-0.753,2.404-1.875,0.567-3.652-1.209
			c-1.777-1.777-3.77-0.567-0.719,4.541C463.608,248.257,462.616,250.874,465.019,252.429z"/>
		
			<linearGradient id="SVGID_17_" gradientUnits="userSpaceOnUse" x1="1186.0023" y1="412.4583" x2="1237.9216" y2="412.4583" gradientTransform="matrix(-1 0 0 1 1583.5612 0)">
			<stop  offset="0" style="stop-color:#FFBA1F"/>
			<stop  offset="0.0037" style="stop-color:#FAB820"/>
			<stop  offset="0.0443" style="stop-color:#CDA02C"/>
			<stop  offset="0.0887" style="stop-color:#A38B37"/>
			<stop  offset="0.1378" style="stop-color:#7D7841"/>
			<stop  offset="0.1911" style="stop-color:#5D6749"/>
			<stop  offset="0.2501" style="stop-color:#415950"/>
			<stop  offset="0.3168" style="stop-color:#2B4E56"/>
			<stop  offset="0.3945" style="stop-color:#1A455B"/>
			<stop  offset="0.4907" style="stop-color:#0F3F5E"/>
			<stop  offset="0.6256" style="stop-color:#083C60"/>
			<stop  offset="1" style="stop-color:#063B60"/>
		</linearGradient>
		<path fill="url(#SVGID_17_)" d="M352.052,336.525l10.759-1.184l1.034,5.238l12.361,2.442l21.353,4.266l-1.879,72.841
			l-3.427,67.227c0,0-5.619,4.996-13.303,0c0,0-9.004-51.435-2.743-69.79c-2.286-7.394-1.953-18.943-5.922-26.232l-0.547,27.564
			l-6.926,54.566c-13.409,3.32-13.31-4.742-13.31-4.742c-2.915-28.589,1.508-56.263,1.508-56.263
			C351.305,395.342,338.101,348.213,352.052,336.525z"/>
		
			<linearGradient id="SVGID_18_" gradientUnits="userSpaceOnUse" x1="1179.5118" y1="304.6941" x2="1240.3044" y2="304.6941" gradientTransform="matrix(-1 0 0 1 1583.5612 0)">
			<stop  offset="0" style="stop-color:#ECFF7D"/>
			<stop  offset="0.3784" style="stop-color:#36DCF2"/>
			<stop  offset="1" style="stop-color:#34A8E2"/>
		</linearGradient>
		<path fill="url(#SVGID_18_)" d="M381.252,251.761c-3.322,2.996-16.538,0.637-16.304-4.268c-3.027-1.183-5.182-2.22-8.307-1.414
			c-7.41,1.912-6.224,13.517-6.92,19.525c-1.089,9.407,1.024,29.696,0.984,50.434c-0.02,10.352-7.176,21.45-7.448,28.886
			c0,6.949,17.397,15.626,31.357,18.193c9.65,1.774,24.799-1.753,24.732-4.837c-0.067-3.084,0.716-51.284,3.017-59.835
			c2.301-8.551,2.514-30.195-1.043-34.537C396.809,258.399,381.252,251.761,381.252,251.761z"/>
		<g>
			<path fill="#D9D9D9" d="M395.917,212.185c2.349,5.166,0.05,7.882,0.231,11.687c0,3.363,2.527,17.423-4.103,18.917
				c-4.688,1.056-7.813,0.513-7.813,0.513l-3.406,9.671c-1.876,3.676-17.413,2.072-16.168-5.669l0.755-6.788
				c-3.533-1.631-10.055-7.473-10.055-19.023c0-11.55,12.312-20.448,23.412-20.448C389.871,201.045,395.267,210.754,395.917,212.185
				z"/>
			
				<linearGradient id="SVGID_19_" gradientUnits="userSpaceOnUse" x1="1186.3855" y1="216.8561" x2="1231.509" y2="216.8561" gradientTransform="matrix(-1 0 0 1 1583.5612 0)">
				<stop  offset="0" style="stop-color:#40FFA8"/>
				<stop  offset="0.0555" style="stop-color:#3FD98D"/>
				<stop  offset="0.1263" style="stop-color:#3FAF71"/>
				<stop  offset="0.2034" style="stop-color:#3E8B57"/>
				<stop  offset="0.286" style="stop-color:#3E6C42"/>
				<stop  offset="0.3757" style="stop-color:#3E5230"/>
				<stop  offset="0.4753" style="stop-color:#3D3F23"/>
				<stop  offset="0.5903" style="stop-color:#3D3119"/>
				<stop  offset="0.7344" style="stop-color:#3D2914"/>
				<stop  offset="1" style="stop-color:#3D2712"/>
			</linearGradient>
			<path fill="url(#SVGID_19_)" d="M386.208,226.819c-1.817-1.073-6.185,4.332-0.558,9.217c0.222,1.332-0.666,3.405-2.073,4.96
				c-1.407,1.555,1.184,1.703-2.591,3.627c-3.776,1.925-10.407,0.577-11.685,1.097c0.03-1.317-2.244-0.621-4.163-4.412
				c-2.585-3.422-6.21-3.444-9.247-10.428c0,0-2.198-3.998-2.125-7.947c0,0-1.06,1.73-0.912,5.085c0,0-3.836-11.246,5.262-18.419
				c0,0-3.116,0.157-5.559,2.674c0,0,3.411-5.494,9.442-6.078c3.587-1.62,2.89-4.35,10.398-5.507
				c7.508-1.156,7.113-6.296,5.922-8.386c0,0,4.529,3.559,4.189,6.546c0,0,2.923-5.304-1.228-10.856c0,0,6.922,3.158,6.607,13.054
				c0,0,1.462-3.959,0.574-7.692c1.703,0.561,11.2,12.895,8.093,20.534c-3.107,7.64-9.977,7.321-9.796,9.86
				C386.941,226.287,386.208,226.819,386.208,226.819z"/>
		</g>
		
			<linearGradient id="SVGID_20_" gradientUnits="userSpaceOnUse" x1="1163.8818" y1="279.8779" x2="1195.5475" y2="279.8779" gradientTransform="matrix(-1 0 0 1 1583.5612 0)">
			<stop  offset="0" style="stop-color:#23BEE2"/>
			<stop  offset="1" style="stop-color:#0771A5"/>
		</linearGradient>
		<path fill="url(#SVGID_20_)" d="M396.138,259.831c9.07,2.718,15.087,12.56,23.541,25.466c-0.148,2.813-5.774,12.448-12.289,15.034
			c0,0-10.882-11.11-14.721-17.106C386.57,273.695,385.267,256.574,396.138,259.831z"/>
	</g>
</g>
</svg>
