<?xml version="1.0" encoding="utf-8"?>
<!-- Generator: Adobe Illustrator 17.0.0, SVG Export Plug-In . SVG Version: 6.00 Build 0)  -->
<!DOCTYPE svg PUBLIC "-//W3C//DTD SVG 1.1//EN" "http://www.w3.org/Graphics/SVG/1.1/DTD/svg11.dtd">
<svg version="1.1" id="Layer_1" xmlns="http://www.w3.org/2000/svg" xmlns:xlink="http://www.w3.org/1999/xlink" x="0px" y="0px"
	 width="760px" height="760px" viewBox="0 0 760 760" enable-background="new 0 0 760 760" xml:space="preserve">
<path fill="#C8C8C8" d="M654.696,648.58c-3.869-13.538-93.977,0.83-208.162,15.456c-114.185,14.626-206.117,31.419-205.337,37.509
	c0.78,6.09,73.111,9.265,187.296-5.361C542.677,681.558,656.383,654.483,654.696,648.58z"/>
<path fill="#C8C8C8" d="M571.7,716.915c-1.16-11.131-28.977-7.602-64.218-5.985c-35.241,1.617-63.626,6.919-63.4,11.841
	c0.226,4.922,22.519,13.814,57.76,12.197C537.083,733.35,572.206,721.768,571.7,716.915z"/>
<g>
	<linearGradient id="SVGID_1_" gradientUnits="userSpaceOnUse" x1="591.7927" y1="170.785" x2="749.4033" y2="170.785">
		<stop  offset="0" style="stop-color:#4737ED"/>
		<stop  offset="0.2073" style="stop-color:#423CED"/>
		<stop  offset="0.4619" style="stop-color:#344BEC"/>
		<stop  offset="0.7401" style="stop-color:#1C64EB"/>
		<stop  offset="1" style="stop-color:#0082E9"/>
	</linearGradient>
	<path fill="url(#SVGID_1_)" d="M593.836,198.638c-5.452-12.129,0.443-28.103,12.467-33.783c12.024-5.68,28.106-0.089,34.013,11.825
		c0.339-12.74,10.382-24.565,22.899-26.962c12.517-2.397,26.218,4.881,31.24,16.595c-1.632-11.366,7.396-22.751,18.626-25.143
		c11.231-2.392,23.323,3.387,29.855,12.831c6.532,9.444,7.872,21.883,5.115,33.029c-1.174,4.746-3.333,9.664-7.594,12.062
		c-3.328,1.873-7.349,1.881-11.167,1.84"/>
</g>
<g>
	
		<linearGradient id="SVGID_2_" gradientUnits="userSpaceOnUse" x1="253.9153" y1="99.6379" x2="411.5258" y2="99.6379" gradientTransform="matrix(-1 0 0 1 466.3801 0)">
		<stop  offset="0" style="stop-color:#4737ED"/>
		<stop  offset="0.2073" style="stop-color:#423CED"/>
		<stop  offset="0.4619" style="stop-color:#344BEC"/>
		<stop  offset="0.7401" style="stop-color:#1C64EB"/>
		<stop  offset="1" style="stop-color:#0082E9"/>
	</linearGradient>
	<path fill="url(#SVGID_2_)" d="M210.421,127.491c5.452-12.129-0.443-28.103-12.467-33.783
		c-12.024-5.681-28.106-0.089-34.013,11.825c-0.339-12.74-10.382-24.565-22.899-26.962c-12.517-2.397-26.218,4.881-31.24,16.595
		c1.632-11.366-7.396-22.751-18.626-25.143c-11.23-2.392-23.323,3.387-29.855,12.831c-6.531,9.444-7.872,21.883-5.115,33.029
		c1.174,4.746,3.333,9.664,7.594,12.062c3.328,1.873,7.349,1.881,11.167,1.84"/>
</g>
<g>
	
		<linearGradient id="SVGID_3_" gradientUnits="userSpaceOnUse" x1="255.103" y1="323.5759" x2="371.9774" y2="323.5759" gradientTransform="matrix(-1 0 0 1 384.4404 0)">
		<stop  offset="0" style="stop-color:#4737ED"/>
		<stop  offset="0.2073" style="stop-color:#423CED"/>
		<stop  offset="0.4619" style="stop-color:#344BEC"/>
		<stop  offset="0.7401" style="stop-color:#1C64EB"/>
		<stop  offset="1" style="stop-color:#0082E9"/>
	</linearGradient>
	<path fill="url(#SVGID_3_)" d="M127.822,344.23c4.043-8.994-0.328-20.839-9.245-25.052c-8.916-4.212-20.842-0.066-25.222,8.769
		c-0.251-9.447-7.699-18.216-16.98-19.993c-9.282-1.777-19.442,3.62-23.166,12.306c1.21-8.428-5.484-16.871-13.812-18.644
		c-8.328-1.774-17.295,2.512-22.139,9.515c-4.843,7.003-5.837,16.227-3.793,24.492c0.87,3.519,2.472,7.166,5.631,8.945
		c2.468,1.389,5.449,1.395,8.281,1.365"/>
</g>
<g>
	<g>
		
			<linearGradient id="SVGID_4_" gradientUnits="userSpaceOnUse" x1="2.3333" y1="583.2142" x2="275.3645" y2="583.2142" gradientTransform="matrix(0.9713 -0.238 0.238 0.9713 -107.5221 71.9202)">
			<stop  offset="0" style="stop-color:#4737ED"/>
			<stop  offset="0.2073" style="stop-color:#423CED"/>
			<stop  offset="0.4619" style="stop-color:#344BEC"/>
			<stop  offset="0.7401" style="stop-color:#1C64EB"/>
			<stop  offset="1" style="stop-color:#0082E9"/>
		</linearGradient>
		<path fill="url(#SVGID_4_)" d="M285.047,655.317c0.934,11.919-13.508,20.255-25.239,17.95
			c-11.731-2.305-20.774-11.371-29.091-19.959c-8.317-8.588-17.488-17.575-29.264-19.636c-19.386-3.393-37.574,13.174-57.202,11.747
			c-19.464-1.415-32.868-19.368-44.203-35.254s-26.74-32.976-46.189-31.373c-7.108,0.586-13.86,3.735-20.989,3.946
			c-7.128,0.211-15.416-4.295-15.334-11.426c0.08-6.981,7.62-11.125,14.08-13.772c18.975-7.775,37.951-15.55,56.926-23.324
			c21.168-8.673,45.314-17.351,66.157-7.923c18.188,8.226,29.166,28.57,48.032,35.09c24.783,8.564,53.522-9.929,77.61,0.43
			c18.141,7.802,26.457,30.029,24.32,49.66c-2.137,19.631-12.397,37.311-22.427,54.322"/>
	</g>
	<path fill="none" stroke="#FFF8F6" stroke-width="0.65" stroke-miterlimit="10" d="M19.763,573.368
		c27.066-14.956,72.821-13.097,101.598-1.777c18.031,7.093,34.329,19.211,53.458,22.294c16.569,2.671,33.436-1.767,50.215-1.448
		c27.221,0.517,55.629,19.999,71.67,41.998"/>
	<path fill="none" stroke="#FFF8F6" stroke-width="0.65" stroke-miterlimit="10" d="M181.63,594.263c0,0-13.13-60.073-39.913-71.369
		"/>
	<path fill="none" stroke="#FFF8F6" stroke-width="0.65" stroke-miterlimit="10" d="M81.764,563.293c0,0-2.876,14.682-27.905,15.499
		"/>
	<path fill="none" stroke="#FFF8F6" stroke-width="0.65" stroke-miterlimit="10" d="M253.659,600.076
		c0,0,3.322-28.586-18.927-36.761"/>
	<path fill="none" stroke="#FFF8F6" stroke-width="0.65" stroke-miterlimit="10" d="M276.774,613.687
		c0,0-17.568,29.031-53.327,31.944"/>
	<path fill="none" stroke="#FFF8F6" stroke-width="0.65" stroke-miterlimit="10" d="M121.877,522.597
		c0,0,22.279,14.993,34.223,66.415"/>
	<path fill="none" stroke="#FFF8F6" stroke-width="0.65" stroke-miterlimit="10" d="M174.819,593.885
		c0,0-26.74,35.223-57.835,36.048"/>
	<path fill="none" stroke="#FFF8F6" stroke-width="0.65" stroke-miterlimit="10" d="M82.896,590.136c0,0,32.969-1.58,42.5-15.926"/>
	<path fill="none" stroke="#FFF8F6" stroke-width="0.65" stroke-miterlimit="10" d="M42.175,553.029c0,0,6.247-3.302,16.469,8.833"
		/>
	<path fill="none" stroke="#FFF8F6" stroke-width="0.65" stroke-miterlimit="10" d="M78.018,538.74c0,0,10.537,5.527,15.619,24.75"
		/>
	<path fill="none" stroke="#FFF8F6" stroke-width="0.65" stroke-miterlimit="10" d="M201.453,633.672
		c0,0,48.393-3.418,44.281-37.353"/>
	<path fill="none" stroke="#FFF8F6" stroke-width="0.65" stroke-miterlimit="10" d="M202.732,561.381
		c0,0,14.237,12.716,6.441,29.812"/>
	<path fill="none" stroke="#FFF8F6" stroke-width="0.65" stroke-miterlimit="10" d="M275.049,560.516
		c0,0,16.509,31.238,9.096,57.065"/>
</g>
<g>
	<g>
		<path fill="#FFAE0B" d="M531.607,562.61c-11.35-4.975-11.906-22.252-4.062-31.847c7.844-9.594,20.553-13.425,32.47-16.827
			c11.917-3.401,24.616-7.388,32.26-17.143c12.582-16.059,6.335-40.785,17.24-58.027c10.813-17.097,33.777-20.567,53.839-23.158
			c20.063-2.591,43.218-8.312,51.265-26.872c2.941-6.782,3.365-14.495,6.659-21.113c3.294-6.618,11.465-11.989,17.943-8.426
			c6.341,3.487,6.441,12.406,5.701,19.605c-2.175,21.146-4.349,42.291-6.524,63.437c-2.426,23.589-6.304,49.902-25.114,64.341
			c-16.414,12.6-40.376,12.684-55.563,26.739c-19.948,18.462-17.101,53.774-38.35,70.723c-16.003,12.765-40.385,9.494-57.282-2.06
			c-16.897-11.554-28.039-29.578-38.68-47.065"/>
	</g>
	<path fill="none" stroke="#FFF8F6" stroke-width="0.6738" stroke-miterlimit="10" d="M736.252,360.227
		c0.432,32.052-23.645,72.963-48.065,93.727c-15.301,13.01-34.348,21.98-46.522,37.956c-10.544,13.837-14.738,31.423-23.236,46.604
		c-13.786,24.626-45.486,41.062-73.437,44.964"/>
	<path fill="none" stroke="#FFF8F6" stroke-width="0.6738" stroke-miterlimit="10" d="M637.988,497.951
		c0,0,61.327,17.379,84.75-1.574"/>
	<path fill="none" stroke="#FFF8F6" stroke-width="0.6738" stroke-miterlimit="10" d="M715.137,421.822
		c0,0-12.013-9.809-0.518-33.085"/>
	<path fill="none" stroke="#FFF8F6" stroke-width="0.6738" stroke-miterlimit="10" d="M597.447,560.939
		c0,0,24.502,17.017,42.856,0.681"/>
	<path fill="none" stroke="#FFF8F6" stroke-width="0.6738" stroke-miterlimit="10" d="M573.702,575.409
		c0,0-17.942-30.255-3.115-64.362"/>
	<path fill="none" stroke="#FFF8F6" stroke-width="0.6738" stroke-miterlimit="10" d="M732.713,478.388
		c0,0-24.599,13.03-77.439-1.203"/>
	<path fill="none" stroke="#FFF8F6" stroke-width="0.6738" stroke-miterlimit="10" d="M641.665,491.91
		c0,0-19.115-41.667-4.661-70.491"/>
	<path fill="none" stroke="#FFF8F6" stroke-width="0.6738" stroke-miterlimit="10" d="M690.049,409.728
		c0,0-14.68,30.905-6.23,46.633"/>
	<path fill="none" stroke="#FFF8F6" stroke-width="0.6738" stroke-miterlimit="10" d="M743.88,390.659
		c0,0-0.038,7.325-16.128,10.732"/>
	<path fill="none" stroke="#FFF8F6" stroke-width="0.6738" stroke-miterlimit="10" d="M739.409,430.407
		c0,0-10.205,6.928-30.26,2.171"/>
	<path fill="none" stroke="#FFF8F6" stroke-width="0.6738" stroke-miterlimit="10" d="M592.275,496.793
		c0,0-20.544,45.901,12.482,58.74"/>
	<path fill="none" stroke="#FFF8F6" stroke-width="0.6738" stroke-miterlimit="10" d="M657.72,533.318
		c0,0-18.585,6.794-30.398-8.693"/>
	<path fill="none" stroke="#FFF8F6" stroke-width="0.6738" stroke-miterlimit="10" d="M623.143,599.837
		c0,0-36.625-0.189-56.604-19.596"/>
</g>
<g>
	<g>
		<path fill="#008758" d="M252.884,599.848c-3.442,7.517-14.292,7.32-20.086,1.692c-5.794-5.628-7.835-14.357-9.63-22.536
			c-1.794-8.179-3.933-16.907-9.833-22.404c-9.713-9.05-25.395-5.642-35.898-13.596c-10.414-7.886-11.938-23.545-12.993-37.21
			c-1.055-13.665-3.985-29.528-15.395-35.591c-4.17-2.216-8.994-2.759-13.05-5.208c-4.057-2.449-7.192-8.158-4.774-12.424
			c2.367-4.176,7.962-3.948,12.456-3.208c13.198,2.174,26.396,4.348,39.594,6.522c14.723,2.425,31.113,5.923,39.633,19.135
			c7.435,11.528,6.807,27.75,15.189,38.495c11.011,14.115,33.235,13.36,43.26,28.305c7.55,11.255,4.807,27.65-2.919,38.703
			c-7.725,11.054-19.344,17.996-30.612,24.618"/>
	</g>
	<path fill="none" stroke="#FFF8F6" stroke-width="0.4395" stroke-miterlimit="10" d="M131.786,454.614
		c20.112,0.771,45.082,18.426,57.409,35.645c7.724,10.789,12.808,23.978,22.48,32.748c8.378,7.596,19.286,11.019,28.564,17.274
		c15.051,10.148,24.457,32.15,26.11,51.199"/>
	<path fill="none" stroke="#FFF8F6" stroke-width="0.4395" stroke-miterlimit="10" d="M163.479,500.558
		c0,0,18.11,9.714,33.942,3.234"/>
	<path fill="none" stroke="#FFF8F6" stroke-width="0.4395" stroke-miterlimit="10" d="M236.858,539.39
		c0,0-47.759,8.783-64.965-2.476"/>
	<path fill="none" stroke="#FFF8F6" stroke-width="0.4395" stroke-miterlimit="10" d="M169.811,470.951
		c0,0-6.492,7.805-20.762-0.748"/>
	<path fill="none" stroke="#FFF8F6" stroke-width="0.4395" stroke-miterlimit="10" d="M253.706,555.229
		c0,0,11.367-16.019,1.644-28.985"/>
	<path fill="none" stroke="#FFF8F6" stroke-width="0.4395" stroke-miterlimit="10" d="M262.106,571.781
		c0,0-19.482,11.139-40.449-0.028"/>
	<path fill="none" stroke="#FFF8F6" stroke-width="0.4395" stroke-miterlimit="10" d="M205.782,460.932
		c0,0,7.472,17.083-2.954,52.375"/>
	<path fill="none" stroke="#FFF8F6" stroke-width="0.4395" stroke-miterlimit="10" d="M151.086,450.462
		c0,0,4.592,0.269,6.272,11.272"/>
	<path fill="none" stroke="#FFF8F6" stroke-width="0.4395" stroke-miterlimit="10" d="M175.884,454.807
		c0,0,4.055,7.137,0.502,20.554"/>
	<path fill="none" stroke="#FFF8F6" stroke-width="0.4395" stroke-miterlimit="10" d="M213.335,556.6c0,0,28.2,15.429,37.189-6.499"
		/>
	<path fill="none" stroke="#FFF8F6" stroke-width="0.4395" stroke-miterlimit="10" d="M238.098,513.515
		c0,0,3.732,12.805-6.315,20.286"/>
	<path fill="none" stroke="#FFF8F6" stroke-width="0.4395" stroke-miterlimit="10" d="M278.828,539.127
		c0,0-1.159,24.784-13.896,37.663"/>
</g>
<g>
	<g>
		<path fill="#008758" d="M535.985,493.934c-8.245-0.62-11.823-10.865-8.555-18.251c3.268-7.386,10.747-12.329,17.795-16.85
			c7.048-4.52,14.492-9.555,17.601-16.995c5.118-12.249-3.519-25.775,0.297-38.385c3.784-12.503,17.941-19.365,30.392-25.095
			c12.451-5.73,26.311-13.981,28.04-26.786c0.631-4.679-0.533-9.392,0.357-14.046c0.89-4.654,5.156-9.576,9.996-8.788
			c4.738,0.771,6.465,6.098,7.33,10.569c2.54,13.133,5.08,26.265,7.62,39.398c2.833,14.65,5.238,31.236-4.196,43.81
			c-8.233,10.973-23.665,16.011-30.835,27.601c-9.418,15.224-1,35.806-11.539,50.393c-7.937,10.986-24.265,14.101-37.312,10.69
			c-13.047-3.411-23.59-11.9-33.71-20.17"/>
	</g>
	<path fill="none" stroke="#FFF8F6" stroke-width="0.4395" stroke-miterlimit="10" d="M630.186,329.972
		c6.254,19.13-1.642,48.674-13.514,66.21c-7.439,10.987-18.046,20.331-22.916,32.445c-4.218,10.493-3.643,21.911-6.292,32.783
		c-4.297,17.637-21.669,34.092-38.961,42.251"/>
	<path fill="none" stroke="#FFF8F6" stroke-width="0.4395" stroke-miterlimit="10" d="M598.091,375.636
		c0,0-2.828,20.355,8.743,32.956"/>
	<path fill="none" stroke="#FFF8F6" stroke-width="0.4395" stroke-miterlimit="10" d="M587.128,457.929
		c0,0-24.806-41.746-20.216-61.79"/>
	<path fill="none" stroke="#FFF8F6" stroke-width="0.4395" stroke-miterlimit="10" d="M628.056,371.303
		c0,0-9.573-3.381-6.502-19.732"/>
	<path fill="none" stroke="#FFF8F6" stroke-width="0.4395" stroke-miterlimit="10" d="M578.119,479.225
		c0,0,18.968,5.104,27.755-8.514"/>
	<path fill="none" stroke="#FFF8F6" stroke-width="0.4395" stroke-miterlimit="10" d="M565.508,492.846
		c0,0-17.206-14.407-14.007-37.946"/>
	<path fill="none" stroke="#FFF8F6" stroke-width="0.4395" stroke-miterlimit="10" d="M649.932,401.564
		c0,0-13.43,12.934-50.147,15.4"/>
	<path fill="none" stroke="#FFF8F6" stroke-width="0.4395" stroke-miterlimit="10" d="M640.777,346.632c0,0,1.341,4.4-8.396,9.793"
		/>
	<path fill="none" stroke="#FFF8F6" stroke-width="0.4395" stroke-miterlimit="10" d="M645.304,371.398
		c0,0-5.287,6.279-19.103,7.601"/>
	<path fill="none" stroke="#FFF8F6" stroke-width="0.4395" stroke-miterlimit="10" d="M562.826,441.837
		c0,0-4.687,31.801,18.997,32.624"/>
	<path fill="none" stroke="#FFF8F6" stroke-width="0.4395" stroke-miterlimit="10" d="M611.826,450.115
		c0,0-10.715,7.943-21.217,1.115"/>
	<path fill="none" stroke="#FFF8F6" stroke-width="0.4395" stroke-miterlimit="10" d="M601.935,497.201
		c0,0-23.646,7.511-40.144,0.033"/>
</g>
<ellipse opacity="0.71" fill="#FF8788" cx="530.766" cy="138.124" rx="103.941" ry="103.386"/>
<g>
	<linearGradient id="SVGID_5_" gradientUnits="userSpaceOnUse" x1="358.9597" y1="79.6128" x2="461.4559" y2="79.6128">
		<stop  offset="0" style="stop-color:#4737ED"/>
		<stop  offset="0.2073" style="stop-color:#423CED"/>
		<stop  offset="0.4619" style="stop-color:#344BEC"/>
		<stop  offset="0.7401" style="stop-color:#1C64EB"/>
		<stop  offset="1" style="stop-color:#0082E9"/>
	</linearGradient>
	<path fill="url(#SVGID_5_)" d="M360.289,97.726c-3.545-7.888,0.288-18.276,8.107-21.97c7.819-3.694,18.278-0.058,22.119,7.69
		c0.22-8.285,6.752-15.975,14.891-17.534c8.14-1.559,17.05,3.175,20.316,10.792c-1.061-7.391,4.81-14.795,12.113-16.351
		c7.303-1.555,15.167,2.203,19.415,8.344c4.248,6.141,5.119,14.23,3.327,21.479c-0.763,3.087-2.168,6.285-4.939,7.844
		c-2.164,1.218-4.779,1.223-7.262,1.197"/>
</g>
<g>
	<g>
		<path fill="#959595" d="M254.803,684.626l-62.041-461.888c-1.103-8.215,4.661-15.769,12.876-16.872l321.97-43.247
			c8.215-1.103,15.769,4.662,16.872,12.876l62.041,461.888c1.104,8.215-4.661,15.768-12.876,16.872l-321.97,43.247
			C263.46,698.606,255.906,692.841,254.803,684.626z"/>
		
			<linearGradient id="SVGID_6_" gradientUnits="userSpaceOnUse" x1="125.6017" y1="375.1927" x2="706.4524" y2="375.1927" gradientTransform="matrix(-0.003 0.9013 -0.9983 0.0225 775.4443 46.6539)">
			<stop  offset="0.0108" style="stop-color:#4C4C4C"/>
			<stop  offset="1" style="stop-color:#303030"/>
		</linearGradient>
		<path fill="url(#SVGID_6_)" d="M257.562,681.654l-61.354-456.776c-1.103-8.215,4.661-15.768,12.876-16.872l315.765-42.414
			c8.215-1.103,15.768,4.662,16.872,12.876l61.354,456.776c1.103,8.215-4.661,15.768-12.876,16.872L274.434,694.53
			C266.219,695.633,258.665,689.869,257.562,681.654z"/>
		
			<rect x="189.124" y="292.491" transform="matrix(0.1331 0.9911 -0.9911 0.1331 772.6724 -23.2751)" fill="#FFFFFF" width="421.034" height="275.141"/>
		<polygon opacity="0.17" fill="#FFFFFF" points="415.265,679.249 318.261,691.356 384.374,181.873 481.378,169.766 		"/>
		
			<ellipse transform="matrix(0.1331 0.9911 -0.9911 0.1331 517.8027 -180.9617)" fill="#303030" cx="362.347" cy="205.519" rx="4.923" ry="5.472"/>
	</g>
	<g>
		<g>
			<linearGradient id="SVGID_7_" gradientUnits="userSpaceOnUse" x1="307.3659" y1="347.135" x2="475.075" y2="347.135">
				<stop  offset="0" style="stop-color:#FFAEA6"/>
				<stop  offset="0.2411" style="stop-color:#FFB3AB"/>
				<stop  offset="0.5372" style="stop-color:#FFC2B9"/>
				<stop  offset="0.8609" style="stop-color:#FFDBCF"/>
				<stop  offset="0.9892" style="stop-color:#FFE7DA"/>
			</linearGradient>
			<path fill="url(#SVGID_7_)" d="M467.762,345.486l-150.623,20.971c-4.639,0.646-8.924-2.591-9.57-7.231l-0.121-0.872
				c-0.646-4.639,2.591-8.924,7.231-9.57l150.623-20.971c4.639-0.646,8.924,2.591,9.57,7.231l0.121,0.871
				C475.639,340.555,472.402,344.84,467.762,345.486z"/>
			<linearGradient id="SVGID_8_" gradientUnits="userSpaceOnUse" x1="311.7688" y1="378.7595" x2="479.4781" y2="378.7595">
				<stop  offset="0" style="stop-color:#FFAEA6"/>
				<stop  offset="0.2411" style="stop-color:#FFB3AB"/>
				<stop  offset="0.5372" style="stop-color:#FFC2B9"/>
				<stop  offset="0.8609" style="stop-color:#FFDBCF"/>
				<stop  offset="0.9892" style="stop-color:#FFE7DA"/>
			</linearGradient>
			<path fill="url(#SVGID_8_)" d="M472.165,377.11l-150.623,20.971c-4.64,0.646-8.924-2.591-9.57-7.231l-0.121-0.871
				c-0.646-4.64,2.591-8.924,7.231-9.57l150.623-20.971c4.639-0.646,8.924,2.591,9.57,7.231l0.121,0.871
				C480.042,372.18,476.805,376.464,472.165,377.11z"/>
			<linearGradient id="SVGID_9_" gradientUnits="userSpaceOnUse" x1="316.1719" y1="410.384" x2="483.8811" y2="410.384">
				<stop  offset="0" style="stop-color:#FFAEA6"/>
				<stop  offset="0.2411" style="stop-color:#FFB3AB"/>
				<stop  offset="0.5372" style="stop-color:#FFC2B9"/>
				<stop  offset="0.8609" style="stop-color:#FFDBCF"/>
				<stop  offset="0.9892" style="stop-color:#FFE7DA"/>
			</linearGradient>
			<path fill="url(#SVGID_9_)" d="M476.568,408.735l-150.623,20.971c-4.639,0.646-8.924-2.591-9.57-7.231l-0.121-0.871
				c-0.646-4.64,2.591-8.924,7.231-9.57l150.623-20.971c4.64-0.646,8.924,2.591,9.57,7.231l0.121,0.872
				C484.445,403.804,481.208,408.089,476.568,408.735z"/>
			<linearGradient id="SVGID_10_" gradientUnits="userSpaceOnUse" x1="320.5749" y1="442.0085" x2="488.2841" y2="442.0085">
				<stop  offset="0" style="stop-color:#FFAEA6"/>
				<stop  offset="0.2411" style="stop-color:#FFB3AB"/>
				<stop  offset="0.5372" style="stop-color:#FFC2B9"/>
				<stop  offset="0.8609" style="stop-color:#FFDBCF"/>
				<stop  offset="0.9892" style="stop-color:#FFE7DA"/>
			</linearGradient>
			<path fill="url(#SVGID_10_)" d="M480.971,440.359L330.348,461.33c-4.639,0.646-8.924-2.591-9.57-7.231l-0.121-0.871
				c-0.646-4.64,2.591-8.924,7.231-9.57l150.623-20.971c4.639-0.646,8.924,2.591,9.57,7.231l0.121,0.871
				C488.848,435.429,485.611,439.713,480.971,440.359z"/>
			<linearGradient id="SVGID_11_" gradientUnits="userSpaceOnUse" x1="324.8484" y1="472.7029" x2="492.5577" y2="472.7029">
				<stop  offset="0" style="stop-color:#FFAEA6"/>
				<stop  offset="0.2411" style="stop-color:#FFB3AB"/>
				<stop  offset="0.5372" style="stop-color:#FFC2B9"/>
				<stop  offset="0.8609" style="stop-color:#FFDBCF"/>
				<stop  offset="0.9892" style="stop-color:#FFE7DA"/>
			</linearGradient>
			<path fill="url(#SVGID_11_)" d="M485.245,471.054l-150.623,20.971c-4.64,0.646-8.924-2.591-9.57-7.231l-0.121-0.871
				c-0.646-4.64,2.591-8.924,7.231-9.57l150.623-20.971c4.639-0.646,8.924,2.591,9.57,7.231l0.121,0.871
				C493.121,466.123,489.884,470.408,485.245,471.054z"/>
		</g>
		<g>
			
				<text transform="matrix(0.9904 -0.1379 0.1379 0.9904 315.0182 360.3922)" fill="#FFFFFF" font-family="'Montserrat-Light'" font-size="7.199">Name</text>
			
				<text transform="matrix(0.9904 -0.1379 0.1379 0.9904 319.3672 391.628)" fill="#FFFFFF" font-family="'Montserrat-Light'" font-size="7.199">Email adress</text>
			
				<text transform="matrix(0.9904 -0.1379 0.1379 0.9904 323.7167 422.8677)" fill="#FFFFFF" font-family="'Montserrat-Light'" font-size="7.199">Country</text>
			
				<text transform="matrix(0.9904 -0.1379 0.1379 0.9904 328.1603 454.7835)" fill="#FFFFFF" font-family="'Montserrat-Light'" font-size="7.199">Phone</text>
			
				<text transform="matrix(0.9904 -0.1379 0.1379 0.9904 332.4149 485.3412)" fill="#FFFFFF" font-family="'Montserrat-Light'" font-size="7.199">Password</text>
		</g>
	</g>
	<text transform="matrix(0.9907 -0.1361 0.1361 0.9907 292.7584 288.36)"><tspan x="0" y="0" fill="#4737ED" font-family="'Montserrat-SemiBold'" font-size="12.8962" letter-spacing="2">ONLINE REGISTRATION</tspan><tspan x="51.133" y="27.941" fill="#4737ED" font-family="'Montserrat-Light'" font-size="12.8962" letter-spacing="2">CONCEPT</tspan></text>
	<linearGradient id="SVGID_12_" gradientUnits="userSpaceOnUse" x1="395.7344" y1="545.2775" x2="428.7198" y2="575.1214">
		<stop  offset="0" style="stop-color:#4737ED"/>
		<stop  offset="0.2073" style="stop-color:#423CED"/>
		<stop  offset="0.4619" style="stop-color:#344BEC"/>
		<stop  offset="0.7401" style="stop-color:#1C64EB"/>
		<stop  offset="1" style="stop-color:#0082E9"/>
	</linearGradient>
	<polygon fill="url(#SVGID_12_)" points="470.674,568.198 367.171,583.016 364.096,561.534 467.599,546.716 	"/>
	
		<text transform="matrix(0.9899 -0.1417 0.1417 0.9899 381.6338 572.5206)" fill="#FFFFFF" font-family="'Montserrat-Regular'" font-size="6.0799" letter-spacing="1">CREATE ACCOUNT</text>
	<text transform="matrix(0.9899 -0.1417 0.1417 0.9899 373.2527 603.2076)"><tspan x="0" y="0" font-family="'Montserrat-Light'" font-size="5.262">Already have an account? </tspan><tspan x="67.048" y="0" fill="#FF8586" font-family="'Montserrat-Light'" font-size="5.262">Sing in</tspan></text>
	
		<rect x="314.511" y="531.196" transform="matrix(0.9899 -0.1417 0.1417 0.9899 -72.4721 50.3545)" fill="none" stroke="#4737ED" stroke-width="0.6032" stroke-miterlimit="10" width="5.508" height="5.507"/>
	
		<rect x="332.688" y="516.548" transform="matrix(0.9899 -0.1417 0.1417 0.9899 -71.6758 65.7892)" fill="none" width="186.702" height="39.103"/>
	<text transform="matrix(0.9899 -0.1417 0.1417 0.9899 331.3048 533.0724)"><tspan x="0" y="0" font-family="'Montserrat-Light'" font-size="4.406">Lorem ipsum dolor sit amet, consectetuer adipiscing elit, sed diam nonummy nibh </tspan><tspan x="0" y="5.287" font-family="'Montserrat-Light'" font-size="4.406">euismod tincidunt ut laoreet dolore magna aliquam erat </tspan></text>
</g>
<g>
	<path fill="#FFB2B7" d="M431.727,447.185c0,0-9.755-18.209-18.209-21.461c0,0-3.252-6.178,5.528-2.926c0,0-1.844-1.054-2.923-3.872
		c-0.193-0.503,0.228-1.026,0.766-0.994c3.932,0.23,17.394,2.7,22.643,25.351l-7.479,5.528"/>
	<g>
		<rect x="541.82" y="711.929" fill="#FFFFFF" width="9.698" height="5.239"/>
		<rect x="480.827" y="711.929" fill="#FFFFFF" width="9.698" height="5.239"/>
		<path fill="#FFFFFF" d="M552.242,715.772v7.245h-22.969C529.273,723.017,525.445,711.025,552.242,715.772z"/>
		<path fill="#FFFFFF" d="M491.114,715.772v7.245h-22.969C468.146,723.017,464.317,711.025,491.114,715.772z"/>
		<linearGradient id="SVGID_13_" gradientUnits="userSpaceOnUse" x1="519.3293" y1="571.8231" x2="513.493" y2="709.3928">
			<stop  offset="0" style="stop-color:#4737ED"/>
			<stop  offset="0.2073" style="stop-color:#423CED"/>
			<stop  offset="0.4619" style="stop-color:#344BEC"/>
			<stop  offset="0.7401" style="stop-color:#1C64EB"/>
			<stop  offset="1" style="stop-color:#0082E9"/>
		</linearGradient>
		<path fill="url(#SVGID_13_)" d="M546.946,552.637l-3.045,95.168c-0.075,2.346,0.069,4.694,0.43,7.013l8.931,57.309h-17.37
			l-12.119-59.839c-0.342-1.689-0.568-3.399-0.676-5.119l-3.573-56.813c-0.049-0.784-1.133-0.948-1.412-0.213l-18.581,48.953
			c-0.496,1.308-0.811,2.678-0.935,4.071l-6.13,68.96h-15.001l-0.773-74.938c-0.011-1.096,0.095-2.191,0.318-3.264l17.035-82.078
			L546.946,552.637z"/>
		<path fill="#00AFE2" d="M495.625,492.828l-33.848-4.232c-3.452-0.07-6.704-1.63-8.919-4.278l-26.589-36.037l15.864-11.117
			l20.204,28.074c2.146,2.981,5.537,4.817,9.207,4.982l72.563-4.708l8.338,104.775l-64.299-7.646L495.625,492.828z"/>
		<path fill="#00AFE2" d="M545.564,477.234l27.611,39.17c3.504,4.971,2.324,11.839-2.637,15.356L543.59,550.86l-10.659-16.581
			l20.985-11.429c0.57-0.31,0.696-1.074,0.257-1.552L536.879,502.5l1.579-27.634l3.158-3.158L545.564,477.234z"/>
	</g>
	<path fill="#FFB2B7" d="M503.252,435.219c0,0-3.613,3.335-6.114,7.504l1.945,1.668l-2.779,7.504l13.062,3.335l9.171-22.511
		L503.252,435.219z"/>
	<g>
		<path fill="#4B2728" d="M518.44,420.938c-4.942-1.591-10.435,0.81-13.858,6.056c-3.423,5.246-4.641,13.133-3.073,19.895
			c-3.254-1.037-6.87,0.605-9.073,4.121c-2.202,3.515-2.898,8.757-1.746,13.148c-2.823,0.735-5.765,1.543-8.032,4.014
			c-2.267,2.471-3.586,7.156-2.156,10.648c1.608,3.924,5.471,4.292,8.698,4.186c20.671-0.679,41.342-1.358,62.013-2.038
			c1.621-0.053,3.299-0.125,4.759-1.116c2.779-1.887,3.995-7.281,2.493-11.065c-1.502-3.784-5.411-5.177-8.019-2.858
			c3.358-2.943,4.645-9.729,2.773-14.622c-1.871-4.893-6.615-7.143-10.22-4.848c3.455-5.705,2.774-14.895-0.645-20.643
			s-8.928-8.392-14.262-8.662c-5.334-0.27-10.596,1.549-15.776,3.355c-0.026,2.45-0.052,4.899-0.078,7.349"/>
	</g>
</g>
</svg>
